name C:\Users\r0593348\3dpredictsim\Results\MidTarsalJoint\Fal_s1_bCst_PF_Natali2010_ls150_MT_k500_d020_MTP_T5_ig24.mot
datacolumns 128
datarows 4
range 1.12343292 1.15713591
endheader
time	pelvis_tilt	pelvis_list	pelvis_rotation	pelvis_tx	pelvis_ty	pelvis_tz	hip_flexion_l	hip_adduction_l	hip_rotation_l	hip_flexion_r	hip_adduction_r	hip_rotation_r	knee_angle_l	knee_angle_r	ankle_angle_l	ankle_angle_r	subtalar_angle_l	subtalar_angle_r	mtj_angle_l	mtj_angle_r	mtp_angle_l	mtp_angle_r	lumbar_extension	lumbar_bending	lumbar_rotation	arm_flex_l	arm_add_l	arm_rot_l	arm_flex_r	arm_add_r	arm_rot_r	elbow_flex_l	elbow_flex_r	pro_sup_l	pro_sup_r	glut_med1_l/activation	glut_med2_l/activation	glut_med3_l/activation	glut_min1_l/activation	glut_min2_l/activation	glut_min3_l/activation	semimem_l/activation	semiten_l/activation	bifemlh_l/activation	bifemsh_l/activation	sar_l/activation	add_long_l/activation	add_brev_l/activation	add_mag1_l/activation	add_mag2_l/activation	add_mag3_l/activation	tfl_l/activation	pect_l/activation	grac_l/activation	glut_max1_l/activation	glut_max2_l/activation	glut_max3_l/activation	iliacus_l/activation	psoas_l/activation	quad_fem_l/activation	gem_l/activation	peri_l/activation	rect_fem_l/activation	vas_med_l/activation	vas_int_l/activation	vas_lat_l/activation	med_gas_l/activation	lat_gas_l/activation	soleus_l/activation	tib_post_l/activation	flex_dig_l/activation	flex_hal_l/activation	tib_ant_l/activation	per_brev_l/activation	per_long_l/activation	per_tert_l/activation	ext_dig_l/activation	ext_hal_l/activation	ercspn_l/activation	intobl_l/activation	extobl_l/activation	glut_med1_r/activation	glut_med2_r/activation	glut_med3_r/activation	glut_min1_r/activation	glut_min2_r/activation	glut_min3_r/activation	semimem_r/activation	semiten_r/activation	bifemlh_r/activation	bifemsh_r/activation	sar_r/activation	add_long_r/activation	add_brev_r/activation	add_mag1_r/activation	add_mag2_r/activation	add_mag3_r/activation	tfl_r/activation	pect_r/activation	grac_r/activation	glut_max1_r/activation	glut_max2_r/activation	glut_max3_r/activation	iliacus_r/activation	psoas_r/activation	quad_fem_r/activation	gem_r/activation	peri_r/activation	rect_fem_r/activation	vas_med_r/activation	vas_int_r/activation	vas_lat_r/activation	med_gas_r/activation	lat_gas_r/activation	soleus_r/activation	tib_post_r/activation	flex_dig_r/activation	flex_hal_r/activation	tib_ant_r/activation	per_brev_r/activation	per_long_r/activation	per_tert_r/activation	ext_dig_r/activation	ext_hal_r/activation	ercspn_r/activation	intobl_r/activation	extobl_r/activation	
          1.12343292	         -2.93017646	         -2.13597915	          5.18062378	          1.40429115	          0.91909790	         -0.00159332	        -17.11934142	         -1.13704074	          6.37149049	         29.38564073	          3.48715781	         -2.16826378	         -7.38040644	        -11.87655931	         -1.16925981	          5.71558985	          8.39867398	         -4.59615980	          3.09251596	         -0.01485846	         15.08431121	         -0.87131251	         -1.99948327	          0.30470289	         -2.01954837	          5.13504099	        -13.45564330	         17.00861278	         -4.32845148	        -13.45727703	          7.73951975	         33.11664307	         15.80012126	         86.51662706	         86.51662706	          0.25923040	          0.09934515	          0.07437311	          0.29219813	          0.19443215	          0.10899057	          0.05000087	          0.05000023	          0.05000016	          0.05975182	          0.10326023	          0.09462360	          0.05000362	          0.05000123	          0.05000207	          0.05000069	          0.30295439	          0.08096062	          0.05000249	          0.05000399	          0.05000257	          0.05000207	          0.40613082	          0.62971592	          0.05000113	          0.05000074	          0.05448931	          0.23432141	          0.05000657	          0.05000461	          0.05000355	          0.28850609	          0.39262591	          0.32164418	          0.28239437	          0.27619628	          0.36355199	          0.05000004	          0.05712767	          0.12039301	          0.05000025	          0.05000006	          0.05000024	          0.05000002	          0.05000009	          0.05000010	          0.05936171	          0.05936177	          0.05000019	          0.05936195	          0.05936192	          0.05000756	          0.11392476	          0.05936166	          0.21997365	          0.05000023	          0.05000040	          0.13430569	          0.30375182	          0.13118666	          0.14849614	          0.10711026	          0.05000013	          0.08365834	          0.09277304	          0.05000050	          0.10943484	          0.15384645	          0.05030850	          0.05000024	          0.16661290	          0.25837249	          0.13352232	          0.05543293	          0.13770237	          0.13551354	          0.12189414	          0.05000108	          0.05000029	          0.05289479	          0.05000002	          0.05000040	          0.05000020	          0.54708505	          0.26164560	          0.16820834	          0.25674947	          0.47110794	          0.22588609	          0.05936194	          0.11337222	          0.10237387	
          1.13466725	         -2.92715123	         -2.21976731	          5.46776849	          1.42120361	          0.91812193	         -0.00140251	        -17.02494460	         -1.43112005	          6.17102364	         28.73873001	          3.81124074	         -1.93051504	         -9.23098353	        -12.04456726	         -1.77960452	          5.08362449	          9.32305950	         -4.97062507	          2.52849343	          0.00154917	         16.51428304	         -0.86557137	         -1.80066988	          0.50164174	         -2.08402487	          4.84152446	        -13.46398434	         17.28228209	         -5.19966684	        -13.45710614	          7.48412153	         34.32411230	         15.41133426	         86.51662706	         86.51662706	          0.21834736	          0.08367750	          0.06264380	          0.24611587	          0.16376841	          0.09180176	          0.05000202	          0.05000048	          0.05000061	          0.05032846	          0.08697529	          0.18075044	          0.05075616	          0.05936921	          0.05935564	          0.05936206	          0.25517572	          0.08740661	          0.05000865	          0.05000213	          0.05000146	          0.05000176	          0.34208022	          0.58462344	          0.05000061	          0.05936158	          0.05936198	          0.19736679	          0.12914701	          0.14857791	          0.14694954	          0.24300595	          0.33070511	          0.27182409	          0.24549117	          0.23263798	          0.30621716	          0.05000003	          0.05000009	          0.13315218	          0.05000009	          0.05000002	          0.05000013	          0.05527683	          0.05972836	          0.05936181	          0.05000001	          0.05000004	          0.10729106	          0.05000004	          0.05000005	          0.05000007	          0.09595786	          0.05000017	          0.18528177	          0.05000011	          0.05000392	          0.11312459	          0.25584786	          0.30572803	          0.20995639	          0.12328060	          0.05000047	          0.07046951	          0.12405025	          0.05320023	          0.10978337	          0.12958369	          0.05000008	          0.05936167	          0.40661266	          0.21762473	          0.11246462	          0.05936267	          0.14719884	          0.14820087	          0.12745045	          0.05000025	          0.05000281	          0.05000002	          0.05943017	          0.05001007	          0.05936260	          0.46208773	          0.26980161	          0.20174150	          0.21625775	          0.43496710	          0.19026177	          0.05000001	          0.09549235	          0.08622855	
          1.14590158	         -2.92047161	         -2.30685281	          5.72508809	          1.43839412	          0.91720965	         -0.00122513	        -16.86165333	         -1.72498923	          5.96287634	         27.97556178	          4.05863653	         -1.67042247	        -11.18525708	        -12.53100891	         -2.53986142	          4.56966029	         10.20387914	         -5.36339724	          1.86505116	         -0.13908954	         17.94194087	         -0.90191730	         -1.58302012	          0.71030638	         -2.13747806	          4.47253344	        -13.46995675	         17.48142089	         -6.09873912	        -13.46326698	          7.27591050	         35.51628452	         15.08160241	         86.51662706	         86.51662706	          0.31706055	          0.07048078	          0.05276432	          0.30891694	          0.13794066	          0.07732379	          0.05000123	          0.05000018	          0.05000015	          0.05000015	          0.07325869	          0.15224451	          0.05000280	          0.05000638	          0.05000123	          0.05000076	          0.22600498	          0.07362306	          0.05000087	          0.05000245	          0.05000149	          0.05000099	          0.28813103	          0.55371660	          0.05000025	          0.05000070	          0.05000025	          0.16624022	          0.10877963	          0.12514608	          0.12377446	          0.20468161	          0.27854979	          0.22895486	          0.20677495	          0.19594890	          0.25792394	          0.05000001	          0.09238428	          0.15188501	          0.05000010	          0.05000004	          0.05000010	          0.05000015	          0.05030863	          0.05000004	          0.23085583	          0.23350029	          0.29566608	          0.34074232	          0.21800340	          0.20383088	          0.09087513	          0.05221446	          0.15607210	          0.08366684	          0.05000166	          0.09528381	          0.21549829	          0.25751191	          0.17684441	          0.11768765	          0.05000039	          0.05936079	          0.10448734	          0.05000082	          0.13612553	          0.10914727	          0.05469279	          0.05000052	          0.34248604	          0.18330336	          0.21703680	          0.05000064	          0.12398425	          0.12482826	          0.10735036	          0.05000078	          0.05000399	          0.05187074	          0.05005751	          0.05000034	          0.05000082	          0.54985112	          0.33222556	          0.17321538	          0.33281434	          0.50844518	          0.18516393	          0.06019196	          0.11785737	          0.07262950	
          1.15713591	         -2.91240134	         -2.38722822	          5.94748993	          1.45564748	          0.91638564	         -0.00102641	        -16.59422343	         -2.00809661	          5.76243993	         27.16644503	          4.28788479	         -1.41082030	        -13.28025384	        -12.98310076	         -3.47577978	          4.09034215	         11.04366133	         -5.76069311	          1.16828436	         -0.11499299	         19.27200419	         -0.87384702	         -1.36983266	          0.92064832	         -2.18261440	          4.06416954	        -13.48129937	         17.63198387	         -6.97830368	        -13.47014803	          7.11630214	         36.67384726	         14.78806120	         86.51662706	         86.51662706	          0.30145601	          0.05936532	          0.05000009	          0.26020026	          0.11618617	          0.06512914	          0.05000209	          0.05000021	          0.05000018	          0.05000016	          0.06170529	          0.15520672	          0.05000148	          0.05000150	          0.05000237	          0.05000164	          0.19036254	          0.06201374	          0.05000096	          0.05000199	          0.05000127	          0.05000094	          0.24269008	          0.50773772	          0.05000019	          0.05000068	          0.05000016	          0.14002258	          0.13014586	          0.11837528	          0.11793801	          0.17240138	          0.23461986	          0.19284651	          0.17416461	          0.16504599	          0.21724696	          0.05000753	          0.09338615	          0.15533827	          0.05000042	          0.11308537	          0.05000068	          0.07753116	          0.05000001	          0.05000003	          0.32406207	          0.32487873	          0.35621813	          0.28700420	          0.18362286	          0.18812216	          0.07863259	          0.08690494	          0.13145818	          0.07047229	          0.05000050	          0.08025669	          0.18151223	          0.21690011	          0.16339898	          0.15984174	          0.05000023	          0.05000128	          0.08961413	          0.20555767	          0.18525061	          0.15573736	          0.05000006	          0.05000007	          0.28847281	          0.15439474	          0.18280834	          0.05000004	          0.12923330	          0.15007251	          0.10629188	          0.05000002	          0.05000004	          0.05000000	          0.05000001	          0.05000008	          0.05000007	          0.60503244	          0.29569623	          0.16331672	          0.56499115	          0.54376255	          0.29152846	          0.08088239	          0.09927017	          0.06117514	
